<svg width="56" height="56" viewBox="0 0 56 56" fill="none" xmlns="http://www.w3.org/2000/svg">
<g id="up">
<g id="backgroundColor" filter="url(#filter0_d)">
<path fill-rule="evenodd" clip-rule="evenodd" d="M0 24C0 10.7452 10.7452 0 24 0C37.2548 0 48 10.7452 48 24C48 37.2548 37.2548 48 24 48C10.7452 48 0 37.2548 0 24Z" transform="translate(4 2)" fill="white"/>
</g>
<g id="backgroundImage">
<g id="Group">
<path id="Combined Shape" fill-rule="evenodd" clip-rule="evenodd" d="M11.2498 3.96783L17.9373 9.70001C18.4617 10.1487 19.2508 10.0872 19.6995 9.56256C20.1483 9.0379 20.0867 8.24884 19.5623 7.80011L10.8123 0.30011C10.3446 -0.100037 9.6551 -0.100037 9.18733 0.30011L0.437331 7.80011C-0.0870829 8.24884 -0.148606 9.0379 0.300124 9.56256C0.748855 10.0872 1.53792 10.1487 2.06233 9.70001L8.74983 3.96783V18.7925C8.74983 19.46 9.30989 19.9998 9.99983 19.9998C10.2469 19.9998 10.4774 19.9307 10.6712 19.8113C11.0189 19.597 11.2498 19.221 11.2498 18.7925V3.96783Z" transform="translate(18 16)" fill="#A0B0B9"/>
</g>
</g>
</g>
<defs>
<filter id="filter0_d" x="0" y="0" width="56" height="56" filterUnits="userSpaceOnUse" color-interpolation-filters="sRGB">
<feFlood flood-opacity="0" result="BackgroundImageFix"/>
<feColorMatrix in="SourceAlpha" type="matrix" values="0 0 0 0 0 0 0 0 0 0 0 0 0 0 0 0 0 0 255 0"/>
<feOffset dy="2"/>
<feGaussianBlur stdDeviation="2"/>
<feColorMatrix type="matrix" values="0 0 0 0 0.290196 0 0 0 0 0.290196 0 0 0 0 0.290196 0 0 0 0.5 0"/>
<feBlend mode="normal" in2="BackgroundImageFix" result="effect1_dropShadow"/>
<feBlend mode="normal" in="SourceGraphic" in2="effect1_dropShadow" result="shape"/>
</filter>
</defs>
</svg>
