<svg width="14" height="14" viewBox="0 0 14 14" fill="none" xmlns="http://www.w3.org/2000/svg">
<path fill-rule="evenodd" clip-rule="evenodd" d="M13.8691 6.37138C13.9096 3.12724 11.0248 0.120162 7.67424 0.00932248C7.61467 0.0176233 7.54045 0.0127405 7.46086 0.00736936C7.20256 -0.0102088 6.89055 -0.0312049 6.86614 0.393844C6.84416 0.768356 7.28459 0.706588 7.57365 0.750289C11.0614 1.27617 12.6703 2.90214 13.1147 6.34672C13.1235 6.41582 13.1249 6.49272 13.1264 6.5706C13.1308 6.85088 13.1357 7.14555 13.498 7.15239C13.9023 7.15996 13.8871 6.83159 13.8735 6.53764C13.871 6.48003 13.8686 6.42363 13.8691 6.37138ZM10.9418 13.9451L11.0326 13.9651L11.04 13.9666C11.0947 13.979 11.143 13.9898 11.1821 14C12.2685 14.0108 13.5409 12.9847 13.9086 11.9664C14.2197 11.1058 13.6801 10.701 13.1435 10.2986C13.0693 10.243 12.995 10.1875 12.9233 10.1309C12.6513 9.91655 12.3681 9.71611 12.0824 9.51909L11.9028 9.3958L11.5644 9.16386C10.6508 8.53471 9.81487 8.48588 9.13322 9.49785C8.75041 10.066 8.21477 10.0909 7.65422 9.8416C6.1093 9.15483 4.91692 8.09672 4.21819 6.55766C3.9091 5.87651 3.91301 5.26591 4.63664 4.78422C5.01897 4.52934 5.40471 4.22807 5.37395 3.67168C5.33342 2.94585 3.53655 0.520309 2.82658 0.264449C2.53264 0.158492 2.24016 0.165572 1.94133 0.263961C0.277268 0.812301 -0.412185 2.15459 0.247971 3.74345C2.21721 8.48393 5.68352 11.7842 10.455 13.7984C10.6196 13.8677 10.7948 13.9119 10.9418 13.9451ZM12.1484 5.79057C12.1405 5.84843 12.143 5.91631 12.1454 5.98686C12.1532 6.2061 12.162 6.45024 11.8652 6.49467C11.4404 6.55791 11.4223 6.26494 11.4057 5.98881C11.4013 5.92046 11.3969 5.85307 11.3866 5.79253C11.0322 3.69755 10.2822 2.92876 8.12785 2.45659C7.81047 2.38701 7.31682 2.43584 7.39885 1.95683C7.47697 1.50005 7.91985 1.65532 8.25529 1.69463C10.4076 1.94829 12.1659 3.7791 12.1484 5.79057ZM10.4687 5.77861C10.5121 5.67216 10.5165 5.53886 10.5116 5.40898C10.5278 4.43828 9.40862 3.31645 8.45354 3.33964C8.22942 3.34502 8.01018 3.3687 7.92766 3.60356C7.80412 3.95415 8.06389 4.03764 8.32854 4.07964C9.21281 4.21855 9.67766 4.72929 9.76555 5.59331C9.78996 5.82817 9.94133 6.01811 10.1723 5.99126C10.3363 5.97221 10.4238 5.88994 10.4687 5.77861Z" transform="translate(0 -0.000244141)" fill="#5A5A5A"/>
</svg>
