<svg width="452" height="1" viewBox="0 0 452 1" fill="none" xmlns="http://www.w3.org/2000/svg">
<path d="M1.00001 0.5V0H2.99999V0.5H3V1H1V0.5H1.00001ZM5.00001 0.5V0H7V0.5H7V1H5V0.5H5.00001ZM9.00001 0.5V0H11L11 0.5V1H9V0.5H9.00001ZM13 0.5V0H15V0.5V1H13V0.5H13ZM17 0.5L17 0H19L19 0.5V1H17V0.5ZM21 0.5L21 0H23L23 0.5V1H21V0.5ZM25 0.5L25 0H27L27 0.5V1H25V0.5ZM29 0.5L29 0H31L31 0.5V1H29V0.5ZM33 0.5L33 0H35L35 0.5V1H33V0.5ZM37 0.5L37 0H39L39 0.5V1H37V0.5ZM41 0.5L41 0H43L43 0.5V1H41V0.5ZM45 0.5V0H47L47 0.5V1H45V0.5ZM49 0.5V0H51L51 0.5V1H49V0.5ZM53 0.5V0H55L55 0.5V1H53V0.5ZM57 0.5L57 0H59L59 0.5V1H57V0.5ZM61 0.5L61 0H63L63 0.5V1H61V0.5ZM65 0.5L65 0H67L67 0.5V1H65V0.5ZM69 0.5L69 0H71L71 0.5V1H69V0.5ZM73 0.5L73 0H75V0.5V1H73V0.5ZM77 0.5L77 0H79V0.5V1H77V0.5ZM81 0.5L81 0H83V0.5V1H81V0.5ZM85 0.5L85 0H87V0.5V1H85V0.5ZM89 0.5L89 0H91L91 0.5V1H89V0.5ZM93 0.5L93 0H95L95 0.5V1H93V0.5ZM97 0.5L97 0H99L99 0.5V1H97V0.5ZM101 0.5L101 0H103L103 0.5V1H101V0.5ZM105 0.5V0H107L107 0.5V1H105V0.5ZM109 0.5V0H111L111 0.5V1H109V0.5ZM113 0.5V0H115L115 0.5V1H113V0.5ZM117 0.5V0H119L119 0.5V1H117V0.5ZM121 0.5V0H123L123 0.5V1H121V0.5ZM125 0.5V0H127L127 0.5V1H125V0.5ZM129 0.5V0H131V0.5V1H129V0.5ZM133 0.5L133 0H135V0.5V1H133V0.5ZM137 0.5L137 0H139V0.5V1H137V0.5ZM141 0.5L141 0H143V0.5V1H141V0.5ZM145 0.5L145 0H147V0.5V1H145V0.5ZM149 0.5L149 0H151V0.5V1H149V0.5ZM153 0.5L153 0H155V0.5V1H153V0.5ZM157 0.5L157 0H159V0.5V1H157V0.5ZM161 0.5V0H163V0.5V1H161V0.5ZM165 0.5V0H167L167 0.5V1H165V0.5ZM169 0.5V0H171L171 0.5V1H169V0.5ZM173 0.5V0H175L175 0.5V1H173V0.5ZM177 0.5V0H179L179 0.5V1H177V0.5ZM181 0.5V0H183L183 0.5V1H181V0.5ZM185 0.5V0H187L187 0.5V1H185V0.5ZM189 0.5V0H191L191 0.5V1H189V0.5ZM193 0.5V0H195V0.5V1H193V0.5ZM197 0.5L197 0H199V0.5V1H197V0.5ZM201 0.5L201 0H203V0.5V1H201V0.5ZM205 0.5L205 0H207V0.5V1H205V0.5ZM209 0.5L209 0H211V0.5V1H209V0.5ZM213 0.5L213 0H215V0.5V1H213V0.5ZM217 0.5L217 0H219V0.5V1H217V0.5ZM221 0.5L221 0H223V0.5V1H221V0.5ZM225 0.5V0H227V0.5V1H225V0.5ZM229 0.5V0H231L231 0.5V1H229V0.5ZM233 0.5V0H235L235 0.5V1H233V0.5ZM237 0.5V0H239L239 0.5V1H237V0.5ZM241 0.5V0H243L243 0.5V1H241V0.5ZM245 0.5V0H247L247 0.5V1H245V0.5ZM249 0.5V0H251L251 0.5V1H249V0.5ZM253 0.5V0H255L255 0.5V1H253V0.5ZM257 0.5V0H259V0.5V1H257V0.5ZM261 0.5V0H263V0.5V1H261V0.5ZM265 0.5V0H267V0.5V1H265V0.5ZM269 0.5V0H271V0.5V1H269V0.5ZM273 0.5V0H275V0.5V1H273V0.5ZM277 0.5V0H279V0.5V1H277V0.5ZM281 0.5V0H283V0.5V1H281V0.5ZM285 0.5V0H287V0.5V1H285V0.5ZM289 0.5V0H291V0.5V1H289V0.5ZM293 0.5V0H295V0.5V1H293V0.5ZM297 0.5V0H299V0.5V1H297V0.5ZM301 0.5V0H303V0.5V1H301V0.5ZM305 0.5V0H307V0.5V1H305V0.5ZM309 0.5V0H311V0.5V1H309V0.5ZM313 0.5V0H315V0.5V1H313V0.5ZM317 0.5V0H319V0.5V1H317V0.5ZM321 0.5V0H323V0.5V1H321V0.5ZM325 0.5V0H327V0.5V1H325V0.5ZM329 0.5V0H331V0.5V1H329V0.5ZM333 0.5V0H335V0.5V1H333V0.5ZM337 0.5V0H339V0.5V1H337V0.5ZM341 0.5V0H343V0.5V1H341V0.5ZM345 0.5V0H347V0.5V1H345V0.5ZM349 0.5V0H351V0.5V1H349V0.5ZM353 0.5V0H355V0.5V1H353V0.5ZM357 0.5V0H359V0.5V1H357V0.5ZM361 0.5V0H363V0.5V1H361V0.5ZM365 0.5V0H367V0.5V1H365V0.5ZM369 0.5V0H371V0.5V1H369V0.5ZM373 0.5V0H375V0.5V1H373V0.5ZM377 0.5V0H379V0.5V1H377V0.5ZM381 0.5V0H383V0.5V1H381V0.5ZM385 0.5V0H387V0.5V1H385V0.5ZM389 0.5V0H391V0.5V1H389V0.5ZM393 0.5V0H395V0.5V1H393V0.5ZM397 0.5V0H399V0.5V1H397V0.5ZM401 0.5V0H403V0.5V1H401V0.5ZM405 0.5V0H407V0.5V1H405V0.5ZM409 0.5V0H411V0.5V1H409V0.5ZM413 0.5V0H415V0.5V1H413V0.5ZM417 0.5V0H419V0.5V1H417V0.5ZM421 0.5V0H423V0.5V1H421V0.5ZM425 0.5V0H427V0.5V1H425V0.5ZM429 0.5V0H431V0.5V1H429V0.5ZM433 0.5V0H435V0.5V1H433V0.5ZM437 0.5V0H439V0.5V1H437V0.5ZM441 0.5V0H443V0.5V1H441V0.5ZM445 0.5V0H447V0.5V1H445V0.5ZM449 0.5V0H451V0.5V1H449V0.5Z" stroke="#DDDDDD"/>
</svg>
