<svg width="7" height="7" viewBox="0 0 7 7" fill="none" xmlns="http://www.w3.org/2000/svg">
<path d="M3.44025 4.62019L1.60225 6.40219C1.23525 6.75719 0.64225 6.75719 0.27525 6.40219C-0.09175 6.04719 -0.09175 5.47219 0.27525 5.11619L2.11325 3.33419L0.27525 1.55219C0.0995519 1.38445 0.000149014 1.15211 0.000149014 0.909193C0.000149014 0.666276 0.0995519 0.43394 0.27525 0.266193C0.646386 -0.0887311 1.23111 -0.0887311 1.60225 0.266193L3.44025 2.04819L5.27825 0.266193C5.64939 -0.0887311 6.23411 -0.0887311 6.60525 0.266193C6.78069 0.434084 6.8799 0.666367 6.8799 0.909193C6.8799 1.15202 6.78069 1.3843 6.60525 1.55219L4.76725 3.33419L6.60525 5.11619C6.78069 5.28408 6.8799 5.51637 6.8799 5.75919C6.8799 6.00202 6.78069 6.2343 6.60525 6.40219C6.23411 6.75712 5.64939 6.75712 5.27825 6.40219L3.44025 4.62019Z" fill="#FF4C3E"/>
</svg>
